<svg width="16" height="16" viewBox="0 0 16 16" fill="none" xmlns="http://www.w3.org/2000/svg">
<path d="M8.66659 4V7.33333C8.66659 7.51014 8.73682 7.67971 8.86185 7.80474C8.98687 7.92976 9.15644 8 9.33325 8H13.4013C13.4896 8.00002 13.577 8.01759 13.6585 8.05169C13.74 8.0858 13.8139 8.13576 13.8759 8.19867L14.4746 8.80533C14.5976 8.93005 14.6666 9.09817 14.6666 9.27333V11.3333C14.6666 11.5101 14.5963 11.6797 14.4713 11.8047C14.3463 11.9298 14.1767 12 13.9999 12H11.9999M11.9999 12C11.9999 12.7364 11.403 13.3333 10.6666 13.3333C9.93021 13.3333 9.33325 12.7364 9.33325 12M11.9999 12C11.9999 11.2636 11.403 10.6667 10.6666 10.6667C9.93021 10.6667 9.33325 11.2636 9.33325 12M3.33325 12H1.99992C1.82311 12 1.65354 11.9298 1.52851 11.8047C1.40349 11.6797 1.33325 11.5101 1.33325 11.3333V5.33333C1.33325 4.97971 1.47373 4.64057 1.72378 4.39052C1.97382 4.14048 2.31296 4 2.66659 4H10.6666C11.3999 4 12.0666 4.53333 12.2666 5.2L13.0506 8M3.33325 12C3.33325 12.7364 3.93021 13.3333 4.66659 13.3333C5.40297 13.3333 5.99992 12.7364 5.99992 12M3.33325 12C3.33325 11.2636 3.93021 10.6667 4.66659 10.6667C5.40297 10.6667 5.99992 11.2636 5.99992 12M5.99992 12H9.33325" stroke="black" stroke-width="1.33333" stroke-linecap="round" stroke-linejoin="round"/>
</svg>
