<svg width="16" height="16" viewBox="0 0 16 16" fill="none" xmlns="http://www.w3.org/2000/svg">
<path d="M7.33325 11.3333L8.66659 12.6667C8.79791 12.798 8.95381 12.9022 9.12539 12.9732C9.29697 13.0443 9.48087 13.0809 9.66659 13.0809C9.8523 13.0809 10.0362 13.0443 10.2078 12.9732C10.3794 12.9022 10.5353 12.798 10.6666 12.6667C10.7979 12.5353 10.9021 12.3794 10.9731 12.2079C11.0442 12.0363 11.0808 11.8524 11.0808 11.6667C11.0808 11.4809 11.0442 11.2971 10.9731 11.1255C10.9021 10.9539 10.7979 10.798 10.6666 10.6667M9.33325 9.33333L10.9999 11C11.2651 11.2652 11.6248 11.4142 11.9999 11.4142C12.375 11.4142 12.7347 11.2652 12.9999 11C13.2651 10.7348 13.4141 10.3751 13.4141 10C13.4141 9.62493 13.2651 9.26522 12.9999 9L10.4133 6.41333C10.0383 6.0388 9.52992 5.82843 8.99992 5.82843C8.46992 5.82843 7.96159 6.0388 7.58659 6.41333L6.99992 7C6.7347 7.26522 6.37499 7.41421 5.99992 7.41421C5.62485 7.41421 5.26514 7.26522 4.99992 7C4.7347 6.73478 4.58571 6.37507 4.58571 6C4.58571 5.62493 4.7347 5.26522 4.99992 5L6.87325 3.12667C7.48141 2.5201 8.27452 2.1337 9.12701 2.02865C9.97951 1.9236 10.8427 2.10589 11.5799 2.54667L11.8933 2.73333C12.1771 2.90466 12.5146 2.96408 12.8399 2.9L13.9999 2.66667M13.9999 2L14.6666 9.33333H13.3333M1.99992 2L1.33325 9.33333L5.66659 13.6667C5.9318 13.9319 6.29151 14.0809 6.66659 14.0809C7.04166 14.0809 7.40137 13.9319 7.66659 13.6667C7.9318 13.4015 8.0808 13.0417 8.0808 12.6667C8.0808 12.2916 7.9318 11.9319 7.66659 11.6667M1.99992 2.66667H7.33325" stroke="black" stroke-width="1.33333" stroke-linecap="round" stroke-linejoin="round"/>
</svg>
