<svg width="32" height="32" viewBox="0 0 32 32" fill="none" xmlns="http://www.w3.org/2000/svg">
<path d="M17.3334 8V14.6667C17.3334 15.0203 17.4739 15.3594 17.7239 15.6095C17.974 15.8595 18.3131 16 18.6667 16H26.8027C26.9794 16 27.1543 16.0352 27.3173 16.1034C27.4803 16.1716 27.6281 16.2715 27.7521 16.3973L28.9494 17.6107C29.1954 17.8601 29.3334 18.1963 29.3334 18.5467V22.6667C29.3334 23.0203 29.1929 23.3594 28.9429 23.6095C28.6928 23.8595 28.3537 24 28.0001 24H24.0001M24.0001 24C24.0001 25.4728 22.8062 26.6667 21.3334 26.6667C19.8607 26.6667 18.6667 25.4728 18.6667 24M24.0001 24C24.0001 22.5272 22.8062 21.3333 21.3334 21.3333C19.8607 21.3333 18.6667 22.5272 18.6667 24M6.66675 24H4.00008C3.64646 24 3.30732 23.8595 3.05727 23.6095C2.80722 23.3594 2.66675 23.0203 2.66675 22.6667V10.6667C2.66675 9.95942 2.9477 9.28115 3.4478 8.78105C3.94789 8.28095 4.62617 8 5.33341 8H21.3334C22.8001 8 24.1334 9.06667 24.5334 10.4L26.1014 16M6.66675 24C6.66675 25.4728 7.86066 26.6667 9.33342 26.6667C10.8062 26.6667 12.0001 25.4728 12.0001 24M6.66675 24C6.66675 22.5272 7.86066 21.3333 9.33342 21.3333C10.8062 21.3333 12.0001 22.5272 12.0001 24M12.0001 24H18.6667" stroke="black" stroke-width="2" stroke-linecap="round" stroke-linejoin="round"/>
</svg>
