<svg width="32" height="32" viewBox="0 0 32 32" fill="none" xmlns="http://www.w3.org/2000/svg">
<path d="M21.3333 13.3333C21.3333 14.7478 20.7714 16.1044 19.7712 17.1046C18.771 18.1048 17.4145 18.6667 16 18.6667C14.5855 18.6667 13.229 18.1048 12.2288 17.1046C11.2286 16.1044 10.6667 14.7478 10.6667 13.3333M4.13733 8.04534H27.8627M4.53333 7.28934C4.18714 7.75093 4 8.31235 4 8.88934V26.6667C4 27.3739 4.28095 28.0522 4.78105 28.5523C5.28115 29.0524 5.95942 29.3333 6.66667 29.3333H25.3333C26.0406 29.3333 26.7189 29.0524 27.219 28.5523C27.719 28.0522 28 27.3739 28 26.6667V8.88934C28 8.31235 27.8129 7.75093 27.4667 7.28934L24.8 3.73334C24.5516 3.40215 24.2295 3.13334 23.8592 2.9482C23.489 2.76306 23.0807 2.66667 22.6667 2.66667H9.33333C8.91935 2.66667 8.51104 2.76306 8.14076 2.9482C7.77048 3.13334 7.44839 3.40215 7.2 3.73334L4.53333 7.28934Z" stroke="black" stroke-width="2.33333" stroke-linecap="round" stroke-linejoin="round"/>
</svg>
