<svg width="32" height="32" viewBox="0 0 32 32" fill="none" xmlns="http://www.w3.org/2000/svg">
<path d="M2.7334 2.73334H5.40007L8.94673 19.2933C9.07684 19.8998 9.41429 20.442 9.90101 20.8265C10.3877 21.211 10.9933 21.4138 11.6134 21.4H24.6534C25.2603 21.399 25.8487 21.1911 26.3214 20.8104C26.7942 20.4298 27.1229 19.8994 27.2534 19.3067L29.4534 9.4H6.82673M12.0001 28C12.0001 28.7364 11.4031 29.3333 10.6667 29.3333C9.93035 29.3333 9.3334 28.7364 9.3334 28C9.3334 27.2636 9.93035 26.6667 10.6667 26.6667C11.4031 26.6667 12.0001 27.2636 12.0001 28ZM26.6667 28C26.6667 28.7364 26.0698 29.3333 25.3334 29.3333C24.597 29.3333 24.0001 28.7364 24.0001 28C24.0001 27.2636 24.597 26.6667 25.3334 26.6667C26.0698 26.6667 26.6667 27.2636 26.6667 28Z" stroke="black" stroke-width="2.33333" stroke-linecap="round" stroke-linejoin="round"/>
</svg>
