<svg width="32" height="32" viewBox="0 0 32 32" fill="none" xmlns="http://www.w3.org/2000/svg">
<path d="M13.4667 2.90934C15.1401 2.5855 16.86 2.5855 18.5334 2.90934M18.5334 29.0907C16.86 29.4145 15.1401 29.4145 13.4667 29.0907M23.4787 4.96C24.894 5.91897 26.1117 7.14116 27.0654 8.56M2.90938 18.5333C2.58554 16.86 2.58554 15.14 2.90938 13.4667M27.0401 23.48C26.0811 24.8953 24.8589 26.113 23.44 27.0667M29.0907 13.4667C29.4146 15.14 29.4146 16.86 29.0907 18.5333M4.96138 8.52134C5.92035 7.10604 7.14254 5.88838 8.56138 4.93467M8.21738 28.156L4.34272 29.2893C4.12307 29.3477 3.89215 29.3489 3.67189 29.2929C3.45164 29.2369 3.24935 29.1256 3.08423 28.9694C2.91912 28.8132 2.79666 28.6175 2.72849 28.4007C2.66032 28.1839 2.64869 27.9532 2.69472 27.7307L3.98138 23.7573" stroke="black" stroke-width="2.33333" stroke-linecap="round" stroke-linejoin="round"/>
</svg>
