<svg width="32" height="32" viewBox="0 0 32 32" fill="none" xmlns="http://www.w3.org/2000/svg">
<path d="M26.6667 12C27.374 12 28.0523 12.281 28.5524 12.7811C29.0525 13.2812 29.3334 13.9594 29.3334 14.6667V28.3813C29.3334 28.5686 29.2779 28.7516 29.1738 28.9072C29.0698 29.0629 28.922 29.1842 28.749 29.2558C28.576 29.3275 28.3857 29.3462 28.2021 29.3097C28.0185 29.2732 27.8498 29.183 27.7174 29.0507L24.7814 26.1147C24.2814 25.6145 23.6033 25.3335 22.8961 25.3333H13.3334C12.6262 25.3333 11.9479 25.0524 11.4478 24.5523C10.9477 24.0522 10.6667 23.3739 10.6667 22.6667V21.3333M21.3334 13.3333C21.3334 14.0406 21.0525 14.7189 20.5524 15.219C20.0523 15.7191 19.374 16 18.6667 16H9.10408C8.3969 16.0002 7.71873 16.2812 7.21875 16.7813L4.28275 19.7173C4.15035 19.8497 3.98169 19.9398 3.79807 19.9764C3.61445 20.0129 3.42412 19.9941 3.25116 19.9225C3.07819 19.8509 2.93035 19.7295 2.82633 19.5739C2.72231 19.4182 2.66677 19.2352 2.66675 19.048V5.33334C2.66675 4.62609 2.9477 3.94782 3.4478 3.44772C3.94789 2.94762 4.62617 2.66667 5.33341 2.66667H18.6667C19.374 2.66667 20.0523 2.94762 20.5524 3.44772C21.0525 3.94782 21.3334 4.62609 21.3334 5.33334V13.3333Z" stroke="black" stroke-width="2.33333" stroke-linecap="round" stroke-linejoin="round"/>
</svg>
