<svg width="16" height="16" viewBox="0 0 16 16" fill="none" xmlns="http://www.w3.org/2000/svg">
<g clip-path="url(#clip0_249_3012)">
<path d="M6.73336 1.45467C7.57004 1.29275 8.43001 1.29275 9.26669 1.45467M9.26669 14.5453C8.43001 14.7073 7.57004 14.7073 6.73336 14.5453M11.7394 2.48C12.447 2.95948 13.0558 3.57058 13.5327 4.28M1.45469 9.26667C1.29277 8.42998 1.29277 7.57002 1.45469 6.73333M13.52 11.74C13.0405 12.4476 12.4294 13.0565 11.72 13.5333M14.5454 6.73333C14.7073 7.57002 14.7073 8.42998 14.5454 9.26667M2.48069 4.26067C2.96017 3.55302 3.57127 2.94419 4.28069 2.46733M4.10869 14.078L2.17136 14.6447C2.06153 14.6738 1.94608 14.6745 1.83595 14.6465C1.72582 14.6185 1.62467 14.5628 1.54212 14.4847C1.45956 14.4066 1.39833 14.3087 1.36425 14.2003C1.33016 14.0919 1.32435 13.9766 1.34736 13.8653L1.99069 11.8787" stroke="black" stroke-width="1.33333" stroke-linecap="round" stroke-linejoin="round"/>
</g>
<defs>
<clipPath id="clip0_249_3012">
<rect width="16" height="16" fill="white"/>
</clipPath>
</defs>
</svg>
