<svg width="16" height="16" viewBox="0 0 16 16" fill="none" xmlns="http://www.w3.org/2000/svg">
<g clip-path="url(#clip0_249_3014)">
<path d="M1.99462 10.8947C2.09265 11.1419 2.11447 11.4129 2.05729 11.6727L1.34729 13.866C1.32441 13.9772 1.33033 14.0925 1.36447 14.2008C1.39862 14.3091 1.45987 14.4069 1.5424 14.4848C1.62494 14.5628 1.72603 14.6185 1.83609 14.6464C1.94615 14.6744 2.06153 14.6738 2.17129 14.6447L4.44662 13.9793C4.69177 13.9307 4.94564 13.952 5.17929 14.0407C6.60288 14.7055 8.21553 14.8461 9.73272 14.4378C11.2499 14.0295 12.5741 13.0984 13.4718 11.8089C14.3694 10.5194 14.7827 8.95427 14.6388 7.3897C14.4949 5.82513 13.8031 4.36164 12.6853 3.25746C11.5676 2.15328 10.0958 1.47936 8.52954 1.3546C6.96333 1.22984 5.40338 1.66225 4.12492 2.57556C2.84646 3.48886 1.93164 4.82436 1.54189 6.34642C1.15213 7.86849 1.31247 9.4793 1.99462 10.8947Z" stroke="black" stroke-width="1.33333" stroke-linecap="round" stroke-linejoin="round"/>
</g>
<defs>
<clipPath id="clip0_249_3014">
<rect width="16" height="16" fill="white"/>
</clipPath>
</defs>
</svg>
