<svg width="16" height="16" viewBox="0 0 16 16" fill="none" xmlns="http://www.w3.org/2000/svg">
<g clip-path="url(#clip0_249_3558)">
<path d="M7.27574 8.72349C7.14833 8.59631 6.99649 8.49625 6.82937 8.42933L1.5427 6.30933C1.47958 6.28401 1.42571 6.23998 1.38834 6.18315C1.35096 6.12633 1.33186 6.05943 1.33361 5.99144C1.33535 5.92345 1.35785 5.85762 1.39808 5.80278C1.43832 5.74795 1.49436 5.70673 1.5587 5.68467L14.2254 1.35133C14.2844 1.33 14.3484 1.32593 14.4097 1.3396C14.471 1.35326 14.5271 1.38411 14.5715 1.42852C14.6159 1.47293 14.6468 1.52907 14.6604 1.59037C14.6741 1.65167 14.67 1.7156 14.6487 1.77467L10.3154 14.4413C10.2933 14.5057 10.2521 14.5617 10.1973 14.602C10.1424 14.6422 10.0766 14.6647 10.0086 14.6664C9.9406 14.6682 9.87371 14.6491 9.81688 14.6117C9.76006 14.5743 9.71603 14.5205 9.6907 14.4573L7.5707 9.16933C7.50349 9.00233 7.40315 8.85067 7.27574 8.72349ZM7.27574 8.72349L14.5694 1.43133" stroke="black" stroke-width="1.33333" stroke-linecap="round" stroke-linejoin="round"/>
</g>
<defs>
<clipPath id="clip0_249_3558">
<rect width="16" height="16" fill="white"/>
</clipPath>
</defs>
</svg>
