<svg width="32" height="32" viewBox="0 0 32 32" fill="none" xmlns="http://www.w3.org/2000/svg">
<path d="M18.6626 5.33333C19.1437 5.33332 19.6158 5.46344 20.0289 5.70991C20.442 5.95638 20.7808 6.31 21.0093 6.73333L21.6573 7.93333C21.8858 8.35665 22.2246 8.71028 22.6377 8.95675C23.0508 9.20321 23.5229 9.33333 24.004 9.33333H26.6666C27.3739 9.33333 28.0521 9.61428 28.5522 10.1144C29.0523 10.6145 29.3333 11.2928 29.3333 12V24C29.3333 24.7072 29.0523 25.3855 28.5522 25.8856C28.0521 26.3857 27.3739 26.6667 26.6666 26.6667H5.33329C4.62605 26.6667 3.94777 26.3857 3.44767 25.8856C2.94758 25.3855 2.66663 24.7072 2.66663 24V12C2.66663 11.2928 2.94758 10.6145 3.44767 10.1144C3.94777 9.61428 4.62605 9.33333 5.33329 9.33333H7.99596C8.47652 9.33335 8.94816 9.20352 9.361 8.95755C9.77384 8.71158 10.1125 8.35862 10.3413 7.93599L10.9933 6.73066C11.222 6.30803 11.5607 5.95507 11.9736 5.70911C12.3864 5.46314 12.8581 5.3333 13.3386 5.33333H18.6626Z" stroke="black" stroke-width="2.33333" stroke-linecap="round" stroke-linejoin="round"/>
<path d="M16 21.3333C18.2091 21.3333 20 19.5425 20 17.3333C20 15.1242 18.2091 13.3333 16 13.3333C13.7908 13.3333 12 15.1242 12 17.3333C12 19.5425 13.7908 21.3333 16 21.3333Z" stroke="black" stroke-width="2.33333" stroke-linecap="round" stroke-linejoin="round"/>
</svg>
