<svg width="16" height="16" viewBox="0 0 16 16" fill="none" xmlns="http://www.w3.org/2000/svg">
<path d="M9.33137 2.66667C9.5719 2.66666 9.80795 2.73172 10.0145 2.85496C10.2211 2.97819 10.3905 3.155 10.5047 3.36667L10.8287 3.96667C10.943 4.17833 11.1123 4.35514 11.3189 4.47838C11.5255 4.60161 11.7615 4.66667 12.002 4.66667H13.3334C13.687 4.66667 14.0261 4.80714 14.2762 5.05719C14.5262 5.30724 14.6667 5.64638 14.6667 6V12C14.6667 12.3536 14.5262 12.6928 14.2762 12.9428C14.0261 13.1929 13.687 13.3333 13.3334 13.3333H2.66671C2.31309 13.3333 1.97395 13.1929 1.7239 12.9428C1.47385 12.6928 1.33337 12.3536 1.33337 12V6C1.33337 5.64638 1.47385 5.30724 1.7239 5.05719C1.97395 4.80714 2.31309 4.66667 2.66671 4.66667H3.99804C4.23832 4.66668 4.47414 4.60176 4.68056 4.47878C4.88698 4.35579 5.05633 4.17931 5.17071 3.968L5.49671 3.36533C5.61108 3.15402 5.78043 2.97754 5.98685 2.85456C6.19327 2.73157 6.42909 2.66665 6.66937 2.66667H9.33137Z" stroke="black" stroke-width="1.33333" stroke-linecap="round" stroke-linejoin="round"/>
<path d="M8.00004 10.6667C9.10461 10.6667 10 9.77124 10 8.66667C10 7.5621 9.10461 6.66667 8.00004 6.66667C6.89547 6.66667 6.00004 7.5621 6.00004 8.66667C6.00004 9.77124 6.89547 10.6667 8.00004 10.6667Z" stroke="black" stroke-width="1.33333" stroke-linecap="round" stroke-linejoin="round"/>
</svg>
