<svg width="32" height="32" viewBox="0 0 32 32" fill="none" xmlns="http://www.w3.org/2000/svg">
<path d="M2.66675 12.6674C2.66678 11.1836 3.11687 9.73481 3.95759 8.51225C4.79831 7.2897 5.9901 6.35091 7.37556 5.8199C8.76101 5.28889 10.275 5.19063 11.7174 5.53809C13.1599 5.88556 14.463 6.66241 15.4547 7.76604C15.5246 7.84072 15.609 7.90026 15.7028 7.94097C15.7967 7.98168 15.8978 8.00268 16.0001 8.00268C16.1023 8.00268 16.2035 7.98168 16.2973 7.94097C16.3911 7.90026 16.4756 7.84072 16.5454 7.76604C17.534 6.65524 18.8374 5.87186 20.2823 5.52017C21.7271 5.16848 23.2447 5.26516 24.6332 5.79735C26.0218 6.32953 27.2153 7.27197 28.0549 8.49924C28.8945 9.7265 29.3405 11.1804 29.3334 12.6674C29.3334 15.7207 27.3334 18.0007 25.3334 20.0007L18.0107 27.0847C17.7623 27.37 17.456 27.5993 17.1121 27.7571C16.7683 27.915 16.3948 27.9978 16.0165 28.0002C15.6381 28.0026 15.2636 27.9245 14.9178 27.771C14.572 27.6175 14.2628 27.3922 14.0107 27.11L6.66675 20.0007C4.66675 18.0007 2.66675 15.734 2.66675 12.6674Z" fill="#00AE6D" stroke="#00AE6D" stroke-width="2.33333" stroke-linecap="round" stroke-linejoin="round"/>
</svg>
