<svg width="32" height="32" viewBox="0 0 32 32" fill="none" xmlns="http://www.w3.org/2000/svg">
<path d="M2.66675 12.6667C2.66678 11.1829 3.11687 9.73411 3.95759 8.51155C4.79831 7.289 5.9901 6.35021 7.37556 5.8192C8.76101 5.28819 10.275 5.18993 11.7174 5.53739C13.1599 5.88486 14.463 6.66171 15.4547 7.76534C15.5246 7.84002 15.609 7.89956 15.7028 7.94027C15.7967 7.98098 15.8978 8.00198 16.0001 8.00198C16.1023 8.00198 16.2035 7.98098 16.2973 7.94027C16.3911 7.89956 16.4756 7.84002 16.5454 7.76534C17.534 6.65454 18.8374 5.87116 20.2823 5.51947C21.7271 5.16778 23.2447 5.26446 24.6332 5.79665C26.0218 6.32883 27.2153 7.27127 28.0549 8.49854C28.8945 9.7258 29.3405 11.1797 29.3334 12.6667C29.3334 15.72 27.3334 18 25.3334 20L18.0107 27.084C17.7623 27.3693 17.456 27.5986 17.1121 27.7564C16.7683 27.9143 16.3948 27.9971 16.0165 27.9995C15.6381 28.0019 15.2636 27.9238 14.9178 27.7703C14.572 27.6168 14.2628 27.3915 14.0107 27.1093L6.66675 20C4.66675 18 2.66675 15.7333 2.66675 12.6667Z" stroke="black" stroke-width="2.33333" stroke-linecap="round" stroke-linejoin="round"/>
</svg>
