<svg width="16" height="16" viewBox="0 0 16 16" fill="none" xmlns="http://www.w3.org/2000/svg">
<path d="M1.33325 6.33333C1.33327 5.59147 1.55831 4.86706 1.97867 4.25578C2.39903 3.6445 2.99493 3.17511 3.68766 2.9096C4.38039 2.64409 5.13736 2.59496 5.85859 2.7687C6.57983 2.94243 7.2314 3.33085 7.72725 3.88267C7.76218 3.92001 7.8044 3.94978 7.8513 3.97013C7.89821 3.99049 7.94879 4.00099 7.99992 4.00099C8.05105 4.00099 8.10163 3.99049 8.14853 3.97013C8.19544 3.94978 8.23766 3.92001 8.27259 3.88267C8.76688 3.32727 9.4186 2.93558 10.141 2.75973C10.8634 2.58389 11.6222 2.63223 12.3165 2.89832C13.0108 3.16441 13.6075 3.63563 14.0273 4.24927C14.4471 4.8629 14.6701 5.58984 14.6666 6.33333C14.6666 7.86 13.6666 9 12.6666 10L9.00525 13.542C8.88103 13.6847 8.72787 13.7993 8.55595 13.8782C8.38403 13.9571 8.19728 13.9986 8.00811 13.9998C7.81894 14.001 7.63168 13.9619 7.45878 13.8852C7.28587 13.8084 7.13127 13.6958 7.00525 13.5547L3.33325 10C2.33325 9 1.33325 7.86667 1.33325 6.33333Z" stroke="black" stroke-width="1.33333" stroke-linecap="round" stroke-linejoin="round"/>
</svg>
