<svg width="103" height="105" viewBox="0 0 103 105" fill="none" xmlns="http://www.w3.org/2000/svg">
<rect width="103" height="105" rx="8" fill="#0C8640"/>
<path d="M50.2136 26.2156C50.3322 25.9758 50.5156 25.774 50.7429 25.6328C50.9702 25.4917 51.2325 25.4169 51.5 25.4169C51.7676 25.4169 52.0298 25.4917 52.2571 25.6328C52.4844 25.774 52.6678 25.9758 52.7865 26.2156L59.0427 38.8879C59.4549 39.722 60.0633 40.4436 60.8157 40.9908C61.5681 41.538 62.442 41.8944 63.3625 42.0296L77.3538 44.0771C77.6189 44.1155 77.8679 44.2273 78.0728 44.3999C78.2777 44.5725 78.4301 44.799 78.513 45.0537C78.5958 45.3084 78.6057 45.5813 78.5416 45.8414C78.4775 46.1014 78.3418 46.3384 78.15 46.5254L68.0317 56.3783C67.3644 57.0286 66.8651 57.8313 66.5769 58.7173C66.2886 59.6033 66.22 60.5461 66.3769 61.4646L68.7656 75.3854C68.8124 75.6504 68.7838 75.9232 68.683 76.1727C68.5822 76.4221 68.4134 76.6383 68.1956 76.7964C67.9779 76.9546 67.7202 77.0483 67.4517 77.067C67.1833 77.0857 66.915 77.0285 66.6775 76.9021L54.1704 70.3262C53.3463 69.8935 52.4295 69.6674 51.4987 69.6674C50.5679 69.6674 49.651 69.8935 48.8269 70.3262L36.3225 76.9021C36.0851 77.0278 35.8171 77.0843 35.5491 77.0653C35.2812 77.0462 35.0239 76.9523 34.8066 76.7943C34.5894 76.6363 34.4208 76.4205 34.3201 76.1714C34.2194 75.9223 34.1907 75.65 34.2371 75.3854L36.6231 61.4673C36.7808 60.5484 36.7125 59.605 36.4242 58.7184C36.1359 57.8319 35.6362 57.0287 34.9683 56.3783L24.85 46.5281C24.6566 46.3413 24.5196 46.104 24.4545 45.8431C24.3894 45.5822 24.3989 45.3083 24.4819 45.0526C24.5649 44.7968 24.718 44.5695 24.9239 44.3966C25.1297 44.2236 25.38 44.112 25.6463 44.0744L39.6348 42.0296C40.5563 41.8955 41.4315 41.5395 42.1849 40.9922C42.9384 40.445 43.5475 39.7228 43.96 38.8879L50.2136 26.2156Z" fill="white"/>
</svg>
